<svg width="124" height="35" viewBox="0 0 124 35" fill="none" xmlns="http://www.w3.org/2000/svg">
<path d="M6.6246 24.3886C5.46999 24.3886 4.38032 24.1685 3.3556 23.7283C2.3381 23.2881 1.45409 22.6495 0.703594 21.8124C0.616997 21.7113 0.573699 21.6139 0.573699 21.5201C0.573699 21.4119 0.627822 21.3036 0.736067 21.1954L2.40304 19.5934C2.49686 19.4995 2.59428 19.4526 2.6953 19.4526C2.81077 19.4526 2.9154 19.5068 3.00922 19.615C3.49271 20.1129 4.04115 20.4918 4.65454 20.7516C5.26793 21.0041 5.89936 21.1304 6.54883 21.1304C7.2416 21.1304 7.772 21.0041 8.14004 20.7516C8.51529 20.4918 8.70291 20.1382 8.70291 19.6908C8.70291 19.3877 8.61632 19.1315 8.44312 18.9222C8.27715 18.7057 7.98489 18.5037 7.56634 18.3161C7.15501 18.1284 6.56327 17.9228 5.79112 17.6991C4.53547 17.3382 3.4458 16.7898 2.52211 16.0537C1.59842 15.3177 1.13657 14.2929 1.13657 12.9796C1.13657 12.193 1.33863 11.4714 1.74275 10.8147C2.14686 10.158 2.75304 9.63479 3.56127 9.24511C4.3695 8.84821 5.35453 8.64976 6.51636 8.64976C7.49778 8.64976 8.43591 8.82656 9.33073 9.18017C10.2328 9.52655 11.0374 9.99922 11.7446 10.5982C11.8528 10.6848 11.907 10.7858 11.907 10.9013C11.907 11.0023 11.8637 11.1033 11.7771 11.2043L10.2508 12.9363C10.157 13.0517 10.0524 13.1095 9.93691 13.1095C9.84309 13.1095 9.74567 13.0698 9.64465 12.9904C9.2261 12.6657 8.74621 12.395 8.20498 12.1786C7.67097 11.9548 7.14418 11.843 6.6246 11.843C6.03286 11.843 5.56741 11.944 5.22824 12.1461C4.89629 12.3409 4.73031 12.6296 4.73031 13.012C4.73031 13.3151 4.82773 13.5677 5.02258 13.7698C5.21742 13.9646 5.4736 14.1342 5.79112 14.2785C6.11585 14.4156 6.59935 14.5888 7.2416 14.7981C7.27047 14.8053 7.36067 14.8342 7.51222 14.8847C8.55137 15.2311 9.41011 15.6027 10.0885 15.9996C10.7668 16.3965 11.2972 16.8872 11.6797 17.4717C12.0621 18.0563 12.2534 18.7707 12.2534 19.615C12.2534 20.5748 12.0188 21.4155 11.5498 22.1371C11.0807 22.8587 10.4204 23.4144 9.56887 23.8041C8.71734 24.1938 7.73592 24.3886 6.6246 24.3886ZM21.2447 10.858C22.457 10.858 23.572 11.1611 24.5895 11.7672C25.6142 12.3662 26.4224 13.1852 27.0141 14.2244C27.6131 15.2563 27.9126 16.3893 27.9126 17.6233C27.9126 18.8573 27.6167 19.9975 27.025 21.0438C26.4332 22.083 25.625 22.9057 24.6003 23.5118C23.5828 24.118 22.4642 24.4211 21.2447 24.4211C20.5663 24.4211 19.9457 24.3092 19.3829 24.0855C18.8272 23.8618 18.3365 23.5515 17.9107 23.1546V27.5494C17.9107 27.838 17.7664 27.9824 17.4777 27.9824H15.0206C14.7319 27.9824 14.5876 27.838 14.5876 27.5494V11.5074C14.5876 11.2188 14.7319 11.0745 15.0206 11.0745H16.8716C17.1169 11.0745 17.2793 11.1899 17.3587 11.4208L17.6185 12.3626C18.5638 11.3595 19.7725 10.858 21.2447 10.858ZM21.1906 21.2387C21.84 21.2387 22.4209 21.0871 22.9333 20.784C23.4529 20.481 23.857 20.0588 24.1456 19.5176C24.4415 18.9691 24.5895 18.3521 24.5895 17.6666C24.5895 16.981 24.4415 16.364 24.1456 15.8156C23.8498 15.2599 23.4421 14.8233 22.9225 14.5058C22.4029 14.1883 21.8184 14.0295 21.1689 14.0295C20.5194 14.0295 19.9313 14.1883 19.4045 14.5058C18.8777 14.8233 18.4628 15.2599 18.1597 15.8156C17.8566 16.364 17.7051 16.981 17.7051 17.6666C17.7051 18.3521 17.8566 18.9655 18.1597 19.5068C18.4628 20.048 18.8777 20.4737 19.4045 20.784C19.9385 21.0871 20.5339 21.2387 21.1906 21.2387ZM36.1052 24.4644C34.8279 24.4644 33.6769 24.1613 32.6522 23.5551C31.6275 22.9417 30.8229 22.1155 30.2383 21.0763C29.661 20.0372 29.3724 18.9042 29.3724 17.6774C29.3724 16.4434 29.6466 15.3068 30.195 14.2677C30.7435 13.2213 31.5048 12.3914 32.479 11.778C33.4604 11.1647 34.5609 10.858 35.7805 10.858C37.1011 10.858 38.2485 11.1502 39.2227 11.7348C40.2041 12.3193 40.951 13.1275 41.4634 14.1594C41.9829 15.1842 42.2427 16.3496 42.2427 17.6558C42.2427 17.8867 42.2319 18.1393 42.2102 18.4135C42.1814 18.6661 42.0298 18.7923 41.7556 18.7923H32.7713C32.9228 19.348 33.1682 19.8315 33.5073 20.2428C33.8465 20.6469 34.2506 20.9572 34.7197 21.1737C35.196 21.3902 35.7047 21.4985 36.2459 21.4985C36.7511 21.4985 37.2093 21.4263 37.6207 21.282C38.0392 21.1304 38.4397 20.9139 38.8222 20.6325C38.916 20.5603 39.0098 20.5243 39.1036 20.5243C39.2263 20.5243 39.3309 20.5892 39.4175 20.7191L40.5757 22.3644C40.6479 22.4727 40.684 22.5665 40.684 22.6459C40.684 22.7685 40.6263 22.8732 40.5108 22.9598C39.9046 23.4361 39.2299 23.8077 38.4866 24.0747C37.7505 24.3345 36.9567 24.4644 36.1052 24.4644ZM38.9521 16.3027C38.7644 15.4873 38.4 14.8558 37.8588 14.4084C37.3248 13.9538 36.6681 13.7265 35.8887 13.7265C35.131 13.7265 34.4671 13.9574 33.897 14.4192C33.3341 14.8739 32.9517 15.5017 32.7496 16.3027H38.9521ZM50.4298 24.4644C49.1525 24.4644 47.9979 24.1613 46.9659 23.5551C45.9412 22.9417 45.1366 22.1155 44.5521 21.0763C43.9748 20.0372 43.6861 18.9042 43.6861 17.6774C43.6861 16.4362 43.9748 15.296 44.5521 14.2569C45.1366 13.2105 45.9412 12.3842 46.9659 11.778C47.9979 11.1647 49.1597 10.858 50.4514 10.858C51.303 10.858 52.1004 10.9879 52.8436 11.2476C53.5941 11.5002 54.2653 11.861 54.857 12.3301C54.9797 12.4311 55.041 12.543 55.041 12.6657C55.041 12.745 55.0085 12.8352 54.9436 12.9363L53.7421 14.6357C53.6555 14.7656 53.5508 14.8306 53.4282 14.8306C53.3344 14.8306 53.2369 14.7945 53.1359 14.7223C52.7534 14.4481 52.3565 14.2388 51.9452 14.0945C51.5339 13.9502 51.0756 13.878 50.5705 13.878C49.9282 13.878 49.3329 14.044 48.7844 14.3759C48.236 14.7007 47.7994 15.1553 47.4747 15.7398C47.1499 16.3171 46.9876 16.963 46.9876 17.6774C46.9876 18.3846 47.1499 19.0233 47.4747 19.5934C47.8066 20.1634 48.2468 20.6145 48.7953 20.9464C49.3509 21.2712 49.9463 21.4335 50.5813 21.4335C51.0865 21.4335 51.5411 21.3614 51.9452 21.217C52.3565 21.0727 52.7534 20.8634 53.1359 20.5892C53.2441 20.517 53.338 20.481 53.4173 20.481C53.54 20.481 53.6483 20.5495 53.7421 20.6866L54.9436 22.3861C55.0158 22.4871 55.0518 22.5845 55.0518 22.6783C55.0518 22.7722 55.0085 22.8587 54.9219 22.9381C54.323 23.4216 53.641 23.7969 52.8761 24.0639C52.1184 24.3309 51.303 24.4644 50.4298 24.4644ZM57.9225 9.5049C57.6338 9.5049 57.4895 9.36057 57.4895 9.07192V6.82042C57.4895 6.53177 57.6338 6.38744 57.9225 6.38744H60.4229C60.7116 6.38744 60.8559 6.53177 60.8559 6.82042V9.07192C60.8559 9.36057 60.7116 9.5049 60.4229 9.5049H57.9225ZM60.8342 23.7067C60.8342 23.9953 60.6899 24.1396 60.4013 24.1396H57.9441C57.6554 24.1396 57.5111 23.9953 57.5111 23.7067V11.5074C57.5111 11.2188 57.6554 11.0745 57.9441 11.0745H60.4013C60.6899 11.0745 60.8342 11.2188 60.8342 11.5074V23.7067ZM73.7248 11.4208C73.8041 11.1899 73.9665 11.0745 74.2119 11.0745H76.0629C76.3515 11.0745 76.4958 11.2188 76.4958 11.5074V23.7067C76.4958 23.9953 76.3515 24.1396 76.0629 24.1396H74.1469C73.9088 24.1396 73.7464 24.0206 73.6598 23.7824L73.4433 22.9165C72.4908 23.9195 71.2893 24.4211 69.8388 24.4211C68.6192 24.4211 67.4971 24.118 66.4723 23.5118C65.4548 22.9057 64.6502 22.083 64.0585 21.0438C63.4667 19.9975 63.1709 18.8573 63.1709 17.6233C63.1709 16.3893 63.4667 15.2563 64.0585 14.2244C64.6574 13.1852 65.4657 12.3662 66.4832 11.7672C67.5079 11.1611 68.6264 10.858 69.8388 10.858C71.3109 10.858 72.5196 11.3595 73.465 12.3626L73.7248 11.4208ZM69.8929 21.2387C70.5496 21.2387 71.1413 21.0871 71.6681 20.784C72.2021 20.4737 72.6207 20.048 72.9238 19.5068C73.2268 18.9655 73.3784 18.3521 73.3784 17.6666C73.3784 16.981 73.2268 16.364 72.9238 15.8156C72.6207 15.2599 72.2057 14.8233 71.6789 14.5058C71.1521 14.1883 70.564 14.0295 69.9145 14.0295C69.2651 14.0295 68.6805 14.1883 68.161 14.5058C67.6414 14.8233 67.2337 15.2599 66.9378 15.8156C66.6419 16.364 66.494 16.981 66.494 17.6666C66.494 18.3521 66.6383 18.9691 66.927 19.5176C67.2228 20.0588 67.627 20.481 68.1393 20.784C68.6589 21.0871 69.2434 21.2387 69.8929 21.2387ZM82.9782 23.7067C82.9782 23.9953 82.8339 24.1396 82.5452 24.1396H80.1205C79.8319 24.1396 79.6876 23.9953 79.6876 23.7067V7.65391C79.6876 7.36525 79.8319 7.22093 80.1205 7.22093H82.5452C82.8339 7.22093 82.9782 7.36525 82.9782 7.65391V23.7067Z" fill="white"/>
<path fill-rule="evenodd" clip-rule="evenodd" d="M108.429 3.86416C107.111 5.94781 106.452 8.2181 106.452 11.8964C106.452 15.5959 107.111 18.4981 108.429 20.6031C109.769 22.708 111.98 23.7604 115.063 23.7604C118.146 23.7604 120.346 22.708 121.665 20.6031C122.901 18.6596 123.567 16.0364 123.662 12.7335V20.7708C123.662 22.4572 122.295 23.8242 120.609 23.8242H90.0749C88.3885 23.8242 87.0215 22.4572 87.0215 20.7708V19.2955H98.1562V23.8242H102.621V19.2955H105.428V15.4046H102.621V0.923828H112.967C110.955 1.30753 109.443 2.28764 108.429 3.86416ZM117.157 0.923828C119.165 1.30753 120.667 2.28764 121.665 3.86416C122.901 5.78801 123.567 7.87097 123.662 11.0744V3.97721C123.662 2.29088 122.295 0.923828 120.609 0.923828H117.157ZM97.3791 0.923828L87.0215 15.7476V3.97721C87.0215 2.29088 88.3885 0.923828 90.0749 0.923828H97.3791ZM118.954 7.9417C119.166 9.00478 119.273 10.323 119.273 11.8964C119.273 13.5123 119.177 14.873 118.986 15.9786C118.794 17.063 118.39 17.9453 117.774 18.6257C117.157 19.2848 116.254 19.6144 115.063 19.6144C113.872 19.6144 112.969 19.2848 112.352 18.6257C111.735 17.9453 111.331 17.063 111.14 15.9786C110.949 14.873 110.853 13.5123 110.853 11.8964C110.853 10.323 110.949 9.00478 111.14 7.9417C111.353 6.85735 111.757 5.97499 112.352 5.29461C112.969 4.61424 113.872 4.27405 115.063 4.27405C116.254 4.27405 117.147 4.61424 117.742 5.29461C118.358 5.97499 118.762 6.85735 118.954 7.9417ZM91.9052 15.4046L98.4432 5.64543V15.4046H91.9052Z" fill="white"/>
<path d="M21.9832 30.4899C21.9832 29.9822 22.0977 29.5267 22.3266 29.1235C22.5556 28.7154 22.8667 28.3968 23.2599 28.1678C23.6581 27.9389 24.0987 27.8244 24.5815 27.8244C25.149 27.8244 25.6442 27.9613 26.0673 28.235C26.4904 28.5088 26.799 28.8971 26.9932 29.3998H26.1793C26.035 29.0862 25.8259 28.8448 25.5521 28.6756C25.2833 28.5063 24.9598 28.4217 24.5815 28.4217C24.2181 28.4217 23.8921 28.5063 23.6034 28.6756C23.3147 28.8448 23.0882 29.0862 22.9239 29.3998C22.7597 29.7084 22.6775 30.0718 22.6775 30.4899C22.6775 30.903 22.7597 31.2664 22.9239 31.58C23.0882 31.8886 23.3147 32.1276 23.6034 32.2968C23.8921 32.466 24.2181 32.5507 24.5815 32.5507C24.9598 32.5507 25.2833 32.4685 25.5521 32.3043C25.8259 32.135 26.035 31.8936 26.1793 31.58H26.9932C26.799 32.0778 26.4904 32.4635 26.0673 32.7373C25.6442 33.0061 25.149 33.1405 24.5815 33.1405C24.0987 33.1405 23.6581 33.0285 23.2599 32.8045C22.8667 32.5755 22.5556 32.2595 22.3266 31.8563C22.0977 31.4531 21.9832 30.9976 21.9832 30.4899ZM28.7438 27.8916V31.1843C28.7438 31.6472 28.8558 31.9907 29.0798 32.2147C29.3087 32.4387 29.6248 32.5507 30.028 32.5507C30.4262 32.5507 30.7373 32.4387 30.9613 32.2147C31.1903 31.9907 31.3048 31.6472 31.3048 31.1843V27.8916H31.9842V31.1768C31.9842 31.6099 31.8971 31.9757 31.7229 32.2744C31.5487 32.5681 31.3122 32.7871 31.0136 32.9314C30.7199 33.0758 30.3889 33.148 30.0205 33.148C29.6522 33.148 29.3187 33.0758 29.02 32.9314C28.7263 32.7871 28.4924 32.5681 28.3182 32.2744C28.1489 31.9757 28.0643 31.6099 28.0643 31.1768V27.8916H28.7438ZM35.9325 33.0957L34.6931 30.9678H33.8718V33.0957H33.1923V27.8916H34.8723C35.2655 27.8916 35.5965 27.9588 35.8653 28.0932C36.1391 28.2276 36.3432 28.4092 36.4776 28.6382C36.612 28.8672 36.6792 29.1285 36.6792 29.4222C36.6792 29.7806 36.5746 30.0967 36.3656 30.3704C36.1615 30.6442 35.8529 30.8259 35.4397 30.9155L36.7464 33.0957H35.9325ZM33.8718 30.4227H34.8723C35.2406 30.4227 35.5169 30.3331 35.7011 30.1539C35.8852 29.9697 35.9773 29.7258 35.9773 29.4222C35.9773 29.1136 35.8852 28.8747 35.7011 28.7054C35.5219 28.5362 35.2456 28.4516 34.8723 28.4516H33.8718V30.4227ZM40.8858 31.9384H38.616L38.1978 33.0957H37.4811L39.3626 27.9214H40.1466L42.0207 33.0957H41.3039L40.8858 31.9384ZM40.6916 31.3859L39.7509 28.7577L38.8101 31.3859H40.6916ZM46.1185 27.8916V28.4441H44.6999V33.0957H44.0204V28.4441H42.5943V27.8916H46.1185ZM47.709 28.4441V30.1838H49.6054V30.7438H47.709V32.5357H49.8294V33.0957H47.0295V27.8841H49.8294V28.4441H47.709ZM52.5524 27.8916C53.1199 27.8916 53.6102 27.9986 54.0233 28.2126C54.4414 28.4217 54.76 28.7228 54.979 29.1161C55.203 29.5093 55.315 29.9722 55.315 30.5048C55.315 31.0374 55.203 31.5004 54.979 31.8936C54.76 32.2819 54.4414 32.5805 54.0233 32.7896C53.6102 32.9937 53.1199 33.0957 52.5524 33.0957H50.9322V27.8916H52.5524ZM52.5524 32.5357C53.2244 32.5357 53.7371 32.359 54.0905 32.0056C54.4439 31.6472 54.6206 31.147 54.6206 30.5048C54.6206 29.8577 54.4414 29.3525 54.0831 28.9891C53.7296 28.6258 53.2194 28.4441 52.5524 28.4441H51.6117V32.5357H52.5524ZM61.2929 27.8916V28.4441H59.0306V30.1987H60.8673V30.7512H59.0306V33.0957H58.3511V27.8916H61.2929ZM64.5476 33.148C64.0648 33.148 63.6243 33.036 63.226 32.812C62.8278 32.583 62.5118 32.2669 62.2778 31.8637C62.0488 31.4556 61.9343 30.9976 61.9343 30.4899C61.9343 29.9822 62.0488 29.5267 62.2778 29.1235C62.5118 28.7154 62.8278 28.3993 63.226 28.1753C63.6243 27.9463 64.0648 27.8318 64.5476 27.8318C65.0354 27.8318 65.4784 27.9463 65.8766 28.1753C66.2749 28.3993 66.5884 28.7129 66.8174 29.1161C67.0464 29.5193 67.1609 29.9772 67.1609 30.4899C67.1609 31.0026 67.0464 31.4605 66.8174 31.8637C66.5884 32.2669 66.2749 32.583 65.8766 32.812C65.4784 33.036 65.0354 33.148 64.5476 33.148ZM64.5476 32.5581C64.911 32.5581 65.237 32.4735 65.5257 32.3043C65.8194 32.135 66.0484 31.8936 66.2126 31.58C66.3819 31.2664 66.4665 30.903 66.4665 30.4899C66.4665 30.0718 66.3819 29.7084 66.2126 29.3998C66.0484 29.0862 65.8219 28.8448 65.5332 28.6756C65.2445 28.5063 64.916 28.4217 64.5476 28.4217C64.1793 28.4217 63.8507 28.5063 63.562 28.6756C63.2733 28.8448 63.0444 29.0862 62.8751 29.3998C62.7109 29.7084 62.6287 30.0718 62.6287 30.4899C62.6287 30.903 62.7109 31.2664 62.8751 31.58C63.0444 31.8936 63.2733 32.135 63.562 32.3043C63.8557 32.4735 64.1842 32.5581 64.5476 32.5581ZM70.8727 33.0957L69.6333 30.9678H68.812V33.0957H68.1325V27.8916H69.8125C70.2057 27.8916 70.5367 27.9588 70.8055 28.0932C71.0793 28.2276 71.2834 28.4092 71.4178 28.6382C71.5522 28.8672 71.6194 29.1285 71.6194 29.4222C71.6194 29.7806 71.5148 30.0967 71.3058 30.3704C71.1017 30.6442 70.7931 30.8259 70.3799 30.9155L71.6866 33.0957H70.8727ZM68.812 30.4227H69.8125C70.1808 30.4227 70.4571 30.3331 70.6412 30.1539C70.8254 29.9697 70.9175 29.7258 70.9175 29.4222C70.9175 29.1136 70.8254 28.8747 70.6412 28.7054C70.462 28.5362 70.1858 28.4516 69.8125 28.4516H68.812V30.4227ZM74.5611 30.4899C74.5611 29.9822 74.6756 29.5267 74.9046 29.1235C75.1336 28.7154 75.4447 28.3968 75.8379 28.1678C76.2361 27.9389 76.6766 27.8244 77.1595 27.8244C77.7269 27.8244 78.2222 27.9613 78.6453 28.235C79.0684 28.5088 79.377 28.8971 79.5711 29.3998H78.7573C78.613 29.0862 78.4039 28.8448 78.1301 28.6756C77.8613 28.5063 77.5378 28.4217 77.1595 28.4217C76.7961 28.4217 76.4701 28.5063 76.1814 28.6756C75.8927 28.8448 75.6662 29.0862 75.5019 29.3998C75.3377 29.7084 75.2555 30.0718 75.2555 30.4899C75.2555 30.903 75.3377 31.2664 75.5019 31.58C75.6662 31.8886 75.8927 32.1276 76.1814 32.2968C76.4701 32.466 76.7961 32.5507 77.1595 32.5507C77.5378 32.5507 77.8613 32.4685 78.1301 32.3043C78.4039 32.135 78.613 31.8936 78.7573 31.58H79.5711C79.377 32.0778 79.0684 32.4635 78.6453 32.7373C78.2222 33.0061 77.7269 33.1405 77.1595 33.1405C76.6766 33.1405 76.2361 33.0285 75.8379 32.8045C75.4447 32.5755 75.1336 32.2595 74.9046 31.8563C74.6756 31.4531 74.5611 30.9976 74.5611 30.4899ZM83.0166 33.148C82.5338 33.148 82.0933 33.036 81.6951 32.812C81.2969 32.583 80.9808 32.2669 80.7468 31.8637C80.5179 31.4556 80.4034 30.9976 80.4034 30.4899C80.4034 29.9822 80.5179 29.5267 80.7468 29.1235C80.9808 28.7154 81.2969 28.3993 81.6951 28.1753C82.0933 27.9463 82.5338 27.8318 83.0166 27.8318C83.5044 27.8318 83.9475 27.9463 84.3457 28.1753C84.7439 28.3993 85.0575 28.7129 85.2864 29.1161C85.5154 29.5193 85.6299 29.9772 85.6299 30.4899C85.6299 31.0026 85.5154 31.4605 85.2864 31.8637C85.0575 32.2669 84.7439 32.583 84.3457 32.812C83.9475 33.036 83.5044 33.148 83.0166 33.148ZM83.0166 32.5581C83.38 32.5581 83.706 32.4735 83.9947 32.3043C84.2884 32.135 84.5174 31.8936 84.6817 31.58C84.8509 31.2664 84.9355 30.903 84.9355 30.4899C84.9355 30.0718 84.8509 29.7084 84.6817 29.3998C84.5174 29.0862 84.2909 28.8448 84.0022 28.6756C83.7135 28.5063 83.385 28.4217 83.0166 28.4217C82.6483 28.4217 82.3198 28.5063 82.0311 28.6756C81.7424 28.8448 81.5134 29.0862 81.3441 29.3998C81.1799 29.7084 81.0978 30.0718 81.0978 30.4899C81.0978 30.903 81.1799 31.2664 81.3441 31.58C81.5134 31.8936 81.7424 32.135 82.0311 32.3043C82.3247 32.4735 82.6533 32.5581 83.0166 32.5581ZM89.3417 33.0957L88.1023 30.9678H87.281V33.0957H86.6015V27.8916H88.2815C88.6747 27.8916 89.0057 27.9588 89.2745 28.0932C89.5483 28.2276 89.7524 28.4092 89.8868 28.6382C90.0212 28.8672 90.0884 29.1285 90.0884 29.4222C90.0884 29.7806 89.9839 30.0967 89.7748 30.3704C89.5707 30.6442 89.2621 30.8259 88.8489 30.9155L90.1556 33.0957H89.3417ZM87.281 30.4227H88.2815C88.6498 30.4227 88.9261 30.3331 89.1103 30.1539C89.2944 29.9697 89.3865 29.7258 89.3865 29.4222C89.3865 29.1136 89.2944 28.8747 89.1103 28.7054C88.9311 28.5362 88.6548 28.4516 88.2815 28.4516H87.281V30.4227ZM94.6982 29.4147C94.6982 29.8478 94.5488 30.2087 94.2502 30.4974C93.9565 30.7811 93.506 30.923 92.8988 30.923H91.8982V33.0957H91.2188V27.8916H92.8988C93.4861 27.8916 93.9316 28.0334 94.2352 28.3172C94.5439 28.6009 94.6982 28.9667 94.6982 29.4147ZM92.8988 30.363C93.2771 30.363 93.5558 30.2808 93.735 30.1166C93.9142 29.9523 94.0038 29.7184 94.0038 29.4147C94.0038 28.7726 93.6354 28.4516 92.8988 28.4516H91.8982V30.363H92.8988ZM97.9767 33.148C97.4939 33.148 97.0534 33.036 96.6551 32.812C96.2569 32.583 95.9408 32.2669 95.7069 31.8637C95.4779 31.4556 95.3634 30.9976 95.3634 30.4899C95.3634 29.9822 95.4779 29.5267 95.7069 29.1235C95.9408 28.7154 96.2569 28.3993 96.6551 28.1753C97.0534 27.9463 97.4939 27.8318 97.9767 27.8318C98.4645 27.8318 98.9075 27.9463 99.3057 28.1753C99.704 28.3993 100.018 28.7129 100.247 29.1161C100.475 29.5193 100.59 29.9772 100.59 30.4899C100.59 31.0026 100.475 31.4605 100.247 31.8637C100.018 32.2669 99.704 32.583 99.3057 32.812C98.9075 33.036 98.4645 33.148 97.9767 33.148ZM97.9767 32.5581C98.3401 32.5581 98.6661 32.4735 98.9548 32.3043C99.2485 32.135 99.4775 31.8936 99.6417 31.58C99.811 31.2664 99.8956 30.903 99.8956 30.4899C99.8956 30.0718 99.811 29.7084 99.6417 29.3998C99.4775 29.0862 99.251 28.8448 98.9623 28.6756C98.6736 28.5063 98.3451 28.4217 97.9767 28.4217C97.6084 28.4217 97.2798 28.5063 96.9911 28.6756C96.7024 28.8448 96.4735 29.0862 96.3042 29.3998C96.14 29.7084 96.0578 30.0718 96.0578 30.4899C96.0578 30.903 96.14 31.2664 96.3042 31.58C96.4735 31.8936 96.7024 32.135 96.9911 32.3043C97.2848 32.4735 97.6133 32.5581 97.9767 32.5581ZM104.302 33.0957L103.062 30.9678H102.241V33.0957H101.562V27.8916H103.242C103.635 27.8916 103.966 27.9588 104.235 28.0932C104.508 28.2276 104.712 28.4092 104.847 28.6382C104.981 28.8672 105.048 29.1285 105.048 29.4222C105.048 29.7806 104.944 30.0967 104.735 30.3704C104.531 30.6442 104.222 30.8259 103.809 30.9155L105.116 33.0957H104.302ZM102.241 30.4227H103.242C103.61 30.4227 103.886 30.3331 104.07 30.1539C104.255 29.9697 104.347 29.7258 104.347 29.4222C104.347 29.1136 104.255 28.8747 104.07 28.7054C103.891 28.5362 103.615 28.4516 103.242 28.4516H102.241V30.4227ZM109.255 31.9384H106.985L106.567 33.0957H105.85L107.732 27.9214H108.516L110.39 33.0957H109.673L109.255 31.9384ZM109.061 31.3859L108.12 28.7577L107.179 31.3859H109.061ZM114.488 27.8916V28.4441H113.069V33.0957H112.39V28.4441H110.964V27.8916H114.488ZM116.078 28.4441V30.1838H117.975V30.7438H116.078V32.5357H118.199V33.0957H115.399V27.8841H118.199V28.4441H116.078ZM120.952 33.148C120.608 33.148 120.299 33.0882 120.026 32.9688C119.757 32.8443 119.545 32.6751 119.391 32.4611C119.237 32.242 119.157 31.9907 119.152 31.7069H119.876C119.901 31.9508 120.001 32.1574 120.175 32.3267C120.354 32.4909 120.613 32.573 120.952 32.573C121.275 32.573 121.529 32.4934 121.713 32.3341C121.902 32.1699 121.997 31.9608 121.997 31.7069C121.997 31.5078 121.942 31.3461 121.833 31.2216C121.723 31.0972 121.586 31.0026 121.422 30.9379C121.258 30.8732 121.036 30.8035 120.757 30.7288C120.414 30.6392 120.138 30.5496 119.929 30.46C119.725 30.3704 119.548 30.2311 119.399 30.0419C119.254 29.8478 119.182 29.5889 119.182 29.2654C119.182 28.9817 119.254 28.7303 119.399 28.5113C119.543 28.2923 119.744 28.123 120.003 28.0036C120.267 27.8841 120.568 27.8244 120.907 27.8244C121.395 27.8244 121.793 27.9463 122.101 28.1902C122.415 28.4341 122.592 28.7577 122.632 29.1609H121.885C121.86 28.9618 121.755 28.7875 121.571 28.6382C121.387 28.4839 121.143 28.4068 120.84 28.4068C120.556 28.4068 120.324 28.4814 120.145 28.6308C119.966 28.7751 119.876 28.9792 119.876 29.243C119.876 29.4322 119.929 29.5865 120.033 29.7059C120.143 29.8254 120.275 29.9175 120.429 29.9822C120.588 30.0419 120.81 30.1116 121.093 30.1912C121.437 30.2858 121.713 30.3804 121.922 30.475C122.131 30.5646 122.31 30.7064 122.46 30.9006C122.609 31.0897 122.684 31.3485 122.684 31.6771C122.684 31.9309 122.617 32.1699 122.482 32.3939C122.348 32.6178 122.149 32.7995 121.885 32.9389C121.621 33.0783 121.31 33.148 120.952 33.148Z" fill="white"/>
</svg>
